<?xml version="1.0" encoding="UTF-8" standalone="no"?>
<svg
   xmlns:dc="http://purl.org/dc/elements/1.1/"
   xmlns:cc="http://creativecommons.org/ns#"
   xmlns:rdf="http://www.w3.org/1999/02/22-rdf-syntax-ns#"
   xmlns:svg="http://www.w3.org/2000/svg"
   xmlns="http://www.w3.org/2000/svg"
   viewBox="0 0 351.496 93.732269"
   height="93.732269"
   width="351.496"
   xml:space="preserve"
   id="svg2"
   version="1.1"><metadata
     id="metadata8"><rdf:RDF><cc:Work
         rdf:about=""><dc:format>image/svg+xml</dc:format><dc:type
           rdf:resource="http://purl.org/dc/dcmitype/StillImage" /></cc:Work></rdf:RDF></metadata><defs
     id="defs6"><clipPath
       id="clipPath18"
       clipPathUnits="userSpaceOnUse"><path
         id="path16"
         d="M 0,70.299 H 263.622 V 0 H 0 Z" /></clipPath></defs><g
     transform="matrix(1.3333333,0,0,-1.3333333,0,93.732267)"
     id="g10"><g
       id="g12"><g
         clip-path="url(#clipPath18)"
         id="g14"><g
           transform="translate(219.0101,9.138)"
           id="g20"><path
             id="path22"
             style="fill:#34b55d;fill-opacity:1;fill-rule:nonzero;stroke:none"
             d="M 0,0 1.077,0.881 C 1.338,0.358 1.632,-0.033 1.925,-0.262 2.251,-0.522 2.61,-0.62 3.002,-0.62 c 0.521,0 0.946,0.13 1.272,0.456 0.327,0.294 0.49,0.685 0.49,1.175 0,0.326 -0.098,0.62 -0.261,0.881 C 4.34,2.12 4.046,2.382 3.589,2.609 3.523,2.675 3.394,2.74 3.197,2.838 2.479,3.263 1.99,3.589 1.729,3.882 1.533,4.078 1.403,4.307 1.306,4.567 1.24,4.828 1.175,5.122 1.175,5.416 c 0,0.881 0.294,1.566 0.848,2.121 0.555,0.555 1.273,0.816 2.154,0.816 0.619,0 1.141,-0.131 1.598,-0.36 0.457,-0.261 0.816,-0.62 1.11,-1.109 L 5.938,6.036 C 5.742,6.362 5.481,6.655 5.221,6.818 4.96,6.982 4.666,7.08 4.307,7.08 3.851,7.08 3.459,6.949 3.133,6.655 2.839,6.362 2.708,6.003 2.708,5.579 2.708,5.024 3.133,4.535 3.98,4.078 4.209,3.947 4.372,3.85 4.47,3.784 5.155,3.426 5.612,3.001 5.873,2.609 6.167,2.186 6.297,1.696 6.297,1.076 6.297,0.163 6.004,-0.588 5.384,-1.143 4.796,-1.664 3.98,-1.958 2.969,-1.958 2.251,-1.958 1.664,-1.795 1.175,-1.469 0.686,-1.143 0.294,-0.653 0,0" /></g><g
           transform="translate(196.5619,7.4407)"
           id="g24"><path
             id="path26"
             style="fill:#34b55d;fill-opacity:1;fill-rule:nonzero;stroke:none"
             d="M 0,0 1.338,10.213 6.688,4.079 C 6.885,3.851 7.048,3.622 7.211,3.426 7.374,3.23 7.505,3.034 7.635,2.839 c 0,0.195 0,0.424 0.033,0.652 C 7.7,3.72 7.733,4.014 7.766,4.34 l 0.75,5.481 H 9.952 L 8.614,-0.358 3.263,5.743 C 3.002,6.036 2.807,6.265 2.676,6.461 2.513,6.656 2.415,6.819 2.284,7.016 2.284,6.688 2.252,6.232 2.153,5.612 V 5.481 L 1.436,0 Z" /></g><g
           transform="translate(176.9525,7.4407)"
           id="g28"><path
             id="path30"
             style="fill:#34b55d;fill-opacity:1;fill-rule:nonzero;stroke:none"
             d="M 0,0 1.305,9.821 H 6.787 L 6.623,8.418 H 2.643 L 2.316,5.971 H 6.297 L 6.102,4.601 H 2.121 L 1.729,1.436 H 5.71 L 5.515,0 Z" /></g><g
           transform="translate(162.4984,14.4886)"
           id="g32"><path
             id="path34"
             style="fill:#34b55d;fill-opacity:1;fill-rule:nonzero;stroke:none"
             d="M 0,0 C -0.424,0.555 -0.914,0.946 -1.436,1.207 -1.958,1.501 -2.545,1.632 -3.197,1.632 -3.72,1.632 -4.209,1.533 -4.666,1.338 -5.123,1.175 -5.515,0.881 -5.873,0.522 -6.265,0.131 -6.559,-0.326 -6.787,-0.849 -6.982,-1.37 -7.08,-1.893 -7.08,-2.447 c 0,-1.044 0.293,-1.86 0.913,-2.513 0.62,-0.619 1.469,-0.945 2.479,-0.945 0.817,0 1.501,0.227 2.056,0.684 0.555,0.457 0.881,1.044 0.98,1.795 h -2.545 l 0.163,1.37 h 4.209 c 0,-1.598 -0.457,-2.904 -1.338,-3.817 -0.881,-0.946 -2.089,-1.403 -3.589,-1.403 -1.469,0 -2.644,0.424 -3.557,1.305 -0.88,0.848 -1.305,2.023 -1.305,3.458 0,0.817 0.131,1.567 0.391,2.252 0.294,0.685 0.686,1.273 1.207,1.794 0.523,0.457 1.11,0.849 1.763,1.077 0.652,0.261 1.37,0.392 2.12,0.392 0.914,0 1.697,-0.163 2.35,-0.457 0.652,-0.326 1.272,-0.816 1.859,-1.533 z" /></g><g
           transform="translate(135.3519,11.0628)"
           id="g36"><path
             id="path38"
             style="fill:#34b55d;fill-opacity:1;fill-rule:nonzero;stroke:none"
             d="M 0,0 H 2.871 L 2.121,2.447 C 2.088,2.545 2.022,2.708 1.99,2.903 1.957,3.1 1.925,3.328 1.859,3.654 1.762,3.426 1.664,3.197 1.565,3.002 1.468,2.773 1.37,2.577 1.272,2.414 Z M -3.589,-3.622 2.088,6.591 5.677,-3.622 H 4.078 L 3.295,-1.306 H -0.62 l -1.273,-2.316 z" /></g><g
           transform="translate(114.4047,7.4407)"
           id="g40"><path
             id="path42"
             style="fill:#34b55d;fill-opacity:1;fill-rule:nonzero;stroke:none"
             d="M 0,0 1.272,9.821 H 2.838 L 1.729,1.501 H 5.416 L 5.187,0 Z" /></g><g
           transform="translate(96.0673,11.0628)"
           id="g44"><path
             id="path46"
             style="fill:#34b55d;fill-opacity:1;fill-rule:nonzero;stroke:none"
             d="M 0,0 H 2.872 L 2.121,2.447 C 2.088,2.545 2.023,2.708 1.991,2.903 1.958,3.1 1.925,3.328 1.86,3.654 1.762,3.426 1.664,3.197 1.566,3.002 1.468,2.773 1.371,2.577 1.272,2.414 Z M -3.589,-3.622 2.088,6.591 5.677,-3.622 H 4.079 L 3.295,-1.306 H -0.62 l -1.305,-2.316 z" /></g><g
           transform="translate(73.6845,7.4407)"
           id="g48"><path
             id="path50"
             style="fill:#34b55d;fill-opacity:1;fill-rule:nonzero;stroke:none"
             d="M 0,0 1.305,9.821 H 3.394 C 4.177,9.821 4.731,9.789 5.09,9.69 5.449,9.593 5.743,9.462 5.971,9.234 6.232,9.038 6.428,8.777 6.559,8.451 6.689,8.157 6.754,7.831 6.754,7.472 6.754,6.853 6.591,6.33 6.265,5.906 5.971,5.515 5.514,5.253 4.927,5.123 5.481,4.96 5.906,4.698 6.232,4.34 6.526,3.98 6.656,3.524 6.656,2.97 6.656,2.447 6.559,1.99 6.363,1.599 6.134,1.175 5.873,0.849 5.481,0.555 5.188,0.359 4.796,0.229 4.372,0.131 3.916,0.065 3.198,0 2.154,0 Z M 2.643,8.483 2.284,5.743 h 0.555 c 0.946,0 1.566,0.098 1.925,0.326 C 5.123,6.298 5.286,6.688 5.286,7.211 5.286,7.7 5.155,8.026 4.862,8.189 4.568,8.386 4.013,8.483 3.165,8.483 Z M 1.697,1.338 h 0.979 c 0.456,0 0.782,0.032 1.011,0.065 0.229,0.033 0.424,0.066 0.587,0.163 0.262,0.098 0.457,0.294 0.621,0.555 0.163,0.261 0.228,0.555 0.228,0.881 0,0.489 -0.164,0.881 -0.49,1.077 C 4.34,4.274 3.72,4.405 2.806,4.405 H 2.088 Z" /></g><g
           transform="translate(58.5775,12.4329)"
           id="g52"><path
             id="path54"
             style="fill:#34b55d;fill-opacity:1;fill-rule:nonzero;stroke:none"
             d="M 0,0 V 0.229 0.815 C 0,0.979 0.033,1.175 0.033,1.37 0,1.175 -0.098,1.012 -0.195,0.815 -0.293,0.62 -0.424,0.392 -0.62,0.098 L -4.176,-5.384 -6.199,0.098 C -6.232,0.229 -6.297,0.392 -6.362,0.555 -6.428,0.751 -6.493,1.012 -6.591,1.37 -6.623,1.077 -6.688,0.652 -6.884,0.065 V 0.032 l -1.469,-5.024 h -1.566 l 3.231,10.245 2.381,-6.362 c 0.098,-0.327 0.196,-0.587 0.294,-0.816 0.065,-0.228 0.131,-0.457 0.196,-0.652 0.098,0.227 0.228,0.489 0.359,0.75 0.163,0.261 0.293,0.489 0.457,0.751 L 1.142,5.253 1.566,-4.992 H 0.065 Z" /></g><g
           transform="translate(29.7997,7.4407)"
           id="g56"><path
             id="path58"
             style="fill:#34b55d;fill-opacity:1;fill-rule:nonzero;stroke:none"
             d="M 0,0 1.305,9.821 H 6.819 L 6.624,8.418 H 2.643 L 2.349,5.971 H 6.297 L 6.134,4.601 H 2.153 L 1.729,1.436 H 5.71 L 5.514,0 Z" /></g><g
           transform="translate(129.0546,30.7044)"
           id="g60"><path
             id="path62"
             style="fill:#34b55d;fill-opacity:1;fill-rule:nonzero;stroke:none"
             d="M 0,0 C -1.436,8.614 1.044,16.608 5.938,22.351 V 6.069 C 2.479,2.61 0.065,0.131 0,0 m 6.852,23.362 c 1.73,1.827 3.687,3.361 5.84,4.6 V 12.791 C 10.636,10.735 8.646,8.745 6.852,6.983 Z m 6.754,5.123 c 1.827,0.946 3.752,1.696 5.808,2.186 V 19.48 c -1.893,-1.86 -3.883,-3.851 -5.808,-5.776 z m 6.722,2.382 c 3.328,0.685 6.883,0.717 10.571,0 0,0 -4.764,-4.732 -10.571,-10.474 z M 0.685,-0.652 C 9.266,-2.12 17.26,0.359 23.036,5.253 H 6.721 C 3.263,1.795 0.815,-0.619 0.685,-0.652 m 23.329,6.786 c 1.827,1.73 3.394,3.687 4.633,5.841 H 13.443 C 11.387,9.919 9.397,7.929 7.602,6.134 Z m 5.155,6.755 c 0.947,1.794 1.697,3.752 2.187,5.807 H 20.165 c -1.893,-1.892 -3.883,-3.883 -5.809,-5.807 z m 2.382,6.721 c 0.686,3.328 0.75,6.884 0.032,10.571 0,0 -4.763,-4.764 -10.538,-10.571 z" /></g><g
           transform="translate(234.182,47.5735)"
           id="g64"><path
             id="path66"
             style="fill:#113e74;fill-opacity:1;fill-rule:nonzero;stroke:none"
             d="m 0,0 16.217,-0.033 c -0.131,-5.742 -1.697,-10.278 -4.732,-13.54 -3.034,-3.263 -7.145,-4.895 -12.366,-4.895 -5.09,0 -9.168,1.404 -12.17,4.177 -3.002,2.773 -4.535,6.525 -4.535,11.191 0,2.578 0.489,5.025 1.402,7.342 0.947,2.316 2.252,4.372 4.014,6.101 1.631,1.664 3.589,2.937 5.84,3.818 2.284,0.848 4.731,1.305 7.342,1.305 3.099,0 5.807,-0.62 8.124,-1.86 2.317,-1.24 4.307,-3.132 6.004,-5.71 L 8.255,3.197 C 7.439,4.666 6.428,5.743 5.253,6.46 4.046,7.178 2.644,7.537 1.012,7.537 c -2.676,0 -4.927,-0.979 -6.689,-2.936 -1.762,-1.958 -2.676,-4.438 -2.676,-7.407 0,-2.48 0.718,-4.47 2.122,-5.971 1.402,-1.468 3.229,-2.219 5.546,-2.219 0.848,0 1.664,0.098 2.414,0.294 0.75,0.196 1.469,0.489 2.088,0.881 0.588,0.326 1.078,0.783 1.501,1.338 0.425,0.522 0.751,1.142 0.98,1.859 h -7.342 z" /></g><g
           transform="translate(198.8139,43.2664)"
           id="g68"><path
             id="path70"
             style="fill:#113e74;fill-opacity:1;fill-rule:nonzero;stroke:none"
             d="M 0,0 H 6.852 L 5.351,7.57 C 5.22,8.288 5.09,8.973 5.024,9.56 4.959,10.147 4.894,10.702 4.894,11.224 4.601,10.343 4.307,9.56 4.046,8.875 3.784,8.223 3.589,7.733 3.426,7.407 Z M -15.728,-13.312 0.456,19.022 h 10.833 l 6.852,-32.334 H 9.364 L 8.092,-7.21 H -3.23 l -3.1,-6.102 z" /></g><g
           transform="translate(178.8773,46.7903)"
           id="g72"><path
             id="path74"
             style="fill:#113e74;fill-opacity:1;fill-rule:nonzero;stroke:none"
             d="M 0,0 C 2.056,-0.392 3.622,-1.207 4.698,-2.447 5.775,-3.72 6.33,-5.351 6.33,-7.341 c 0,-1.632 -0.358,-3.165 -1.109,-4.568 -0.718,-1.404 -1.73,-2.48 -3.002,-3.296 -0.947,-0.587 -2.12,-1.011 -3.557,-1.239 -1.402,-0.261 -3.784,-0.392 -7.08,-0.392 h -2.284 -20.849 l 1.174,0.587 1.469,0.816 2.805,1.957 1.306,1.078 1.239,1.141 1.143,1.208 1.109,1.305 1.012,1.337 0.913,1.436 0.849,1.469 0.75,1.533 0.685,1.566 0.555,1.632 0.489,1.664 0.359,1.729 0.261,1.762 0.163,1.794 0.033,1.795 -0.066,1.86 -0.195,1.859 -0.261,1.697 -0.228,1.11 h 9.364 c 2.806,0 4.829,-0.066 6.036,-0.196 C 0.62,15.172 1.632,14.944 2.447,14.618 3.785,14.095 4.829,13.214 5.612,11.975 6.428,10.767 6.819,9.364 6.819,7.831 6.819,5.677 6.199,3.916 4.992,2.545 3.785,1.142 2.121,0.294 0,0 m -7.569,3.002 h 0.717 c 2.088,0 3.524,0.261 4.307,0.815 0.783,0.555 1.175,1.501 1.175,2.807 0,0.946 -0.294,1.631 -0.946,2.055 -0.653,0.425 -1.664,0.653 -3.1,0.653 H -6.623 Z M -9.69,-10.506 h 1.044 c 2.61,0 4.339,0.326 5.22,0.979 0.849,0.62 1.306,1.729 1.306,3.328 0,1.174 -0.392,2.023 -1.109,2.512 -0.751,0.49 -1.991,0.75 -3.753,0.75 h -1.534 z" /></g><g
           transform="translate(116.6557,29.9544)"
           id="g76"><path
             id="path78"
             style="fill:#113e74;fill-opacity:1;fill-rule:nonzero;stroke:none"
             d="m 0,0 3.948,24.83 h -7.243 l 1.24,7.504 h 28.81 l -0.522,-0.228 -1.534,-0.751 -1.468,-0.848 -1.435,-0.913 -1.338,-1.012 -1.305,-1.077 -1.24,-1.174 -1.142,-1.24 -2.088,-2.643 -0.914,-1.436 -0.848,-1.5 L 12.17,17.978 11.485,16.379 10.931,14.748 10.441,13.084 10.05,11.355 9.756,9.593 9.593,7.798 9.495,5.971 9.527,4.111 9.886,0.718 9.984,0 Z" /></g><g
           transform="translate(76.6537,29.9544)"
           id="g80"><path
             id="path82"
             style="fill:#113e74;fill-opacity:1;fill-rule:nonzero;stroke:none"
             d="m 0,0 5.09,32.334 h 9.887 l 6.818,-15.955 c 0.066,-0.13 0.164,-0.358 0.294,-0.685 0.751,-1.762 1.273,-3.296 1.566,-4.601 v 0.816 c 0,0.588 0.033,1.24 0.098,1.958 0.065,0.717 0.164,1.599 0.294,2.61 l 2.48,15.857 h 8.646 L 30.083,0 h -9.495 l -7.243,16.477 c -0.555,1.175 -0.946,2.186 -1.207,2.937 -0.294,0.783 -0.522,1.566 -0.718,2.349 v -0.881 c 0,-0.62 0,-1.24 -0.066,-1.893 -0.064,-0.652 -0.13,-1.533 -0.26,-2.61 L 8.614,0 Z" /></g><g
           transform="translate(63.5697,29.9544)"
           id="g84"><path
             id="path86"
             style="fill:#113e74;fill-opacity:1;fill-rule:nonzero;stroke:none"
             d="m 0,0 5.123,32.334 h 8.842 L 8.81,0 Z" /></g><g
           transform="translate(45.2001,47.5081)"
           id="g88"><path
             id="path90"
             style="fill:#113e74;fill-opacity:1;fill-rule:nonzero;stroke:none"
             d="M 0,0 H 2.708 C 4.405,0 5.743,0.424 6.656,1.175 7.57,1.958 8.027,3.1 8.027,4.568 8.027,5.938 7.57,6.95 6.722,7.57 5.873,8.19 4.503,8.516 2.61,8.516 H 1.338 Z m -2.773,-17.554 h -8.581 l 5.089,32.335 H 2.35 c 2.609,0 4.535,-0.066 5.807,-0.261 1.24,-0.196 2.349,-0.49 3.263,-0.947 1.664,-0.75 2.904,-1.827 3.72,-3.23 0.848,-1.403 1.272,-3.067 1.272,-4.992 0,-2.675 -0.816,-4.927 -2.414,-6.754 -1.599,-1.794 -3.785,-2.904 -6.591,-3.361 l 7.863,-12.79 H 5.417 l -6.232,12.366 z" /></g><g
           transform="translate(7.1557,29.9544)"
           id="g92"><path
             id="path94"
             style="fill:#113e74;fill-opacity:1;fill-rule:nonzero;stroke:none"
             d="m 0,0 5.155,32.334 h 8.875 c 2.448,0 4.307,-0.098 5.547,-0.293 1.24,-0.196 2.317,-0.522 3.23,-0.979 1.631,-0.849 2.872,-2.023 3.687,-3.459 0.816,-1.468 1.24,-3.197 1.24,-5.253 0,-1.99 -0.424,-3.883 -1.305,-5.612 -0.881,-1.696 -2.088,-3.034 -3.589,-3.948 -0.881,-0.555 -1.925,-0.946 -3.132,-1.174 -1.208,-0.229 -3.1,-0.36 -5.678,-0.36 H 12.725 10.409 L 8.614,0 Z m 11.485,18.141 h 0.816 c 2.806,0 4.699,0.294 5.678,0.881 1.011,0.587 1.5,1.599 1.5,3.002 0,1.207 -0.424,2.088 -1.272,2.643 -0.849,0.522 -2.186,0.815 -3.981,0.815 H 12.66 Z" /></g><g
           transform="translate(253.1312,60.7356)"
           id="g96"><path
             id="path98"
             style="fill:#113e74;fill-opacity:1;fill-rule:nonzero;stroke:none"
             d="M 0,0 H 0.236 C 0.571,0 0.78,0.013 0.86,0.039 0.942,0.065 1.005,0.11 1.054,0.175 1.1,0.239 1.123,0.312 1.123,0.395 1.123,0.474 1.1,0.545 1.055,0.608 1.009,0.67 0.943,0.714 0.858,0.742 0.775,0.769 0.566,0.782 0.236,0.782 H 0 Z M -0.581,-1.626 V 1.236 H 0 C 0.545,1.236 0.85,1.233 0.916,1.229 1.107,1.213 1.257,1.175 1.363,1.115 1.471,1.055 1.56,0.963 1.633,0.84 1.703,0.717 1.739,0.58 1.739,0.43 1.739,0.223 1.671,0.046 1.537,-0.101 1.402,-0.247 1.212,-0.337 0.969,-0.373 1.055,-0.406 1.121,-0.442 1.169,-0.48 1.216,-0.519 1.28,-0.592 1.362,-0.701 1.384,-0.729 1.453,-0.845 1.574,-1.049 L 1.912,-1.626 H 1.193 L 0.954,-1.162 C 0.792,-0.85 0.658,-0.653 0.553,-0.572 0.447,-0.491 0.313,-0.45 0.151,-0.45 H 0 v -1.176 z m 1.222,3.613 c -0.371,0 -0.726,-0.094 -1.068,-0.279 -0.34,-0.186 -0.608,-0.452 -0.804,-0.8 -0.197,-0.346 -0.294,-0.71 -0.294,-1.091 0,-0.378 0.095,-0.738 0.288,-1.081 0.191,-0.342 0.457,-0.611 0.8,-0.803 0.342,-0.192 0.703,-0.289 1.078,-0.289 0.379,0 0.737,0.097 1.08,0.289 0.342,0.192 0.608,0.461 0.8,0.803 0.193,0.343 0.289,0.703 0.289,1.081 0,0.381 -0.098,0.745 -0.293,1.091 C 2.32,1.256 2.051,1.522 1.71,1.708 1.368,1.893 1.012,1.987 0.641,1.987 M 0.638,2.514 C 1.1,2.514 1.543,2.399 1.968,2.167 2.393,1.937 2.728,1.605 2.971,1.172 3.213,0.741 3.335,0.289 3.335,-0.183 3.335,-0.653 3.216,-1.1 2.977,-1.526 2.738,-1.953 2.406,-2.285 1.98,-2.522 1.554,-2.761 1.107,-2.88 0.638,-2.88 c -0.47,0 -0.918,0.119 -1.344,0.358 -0.427,0.237 -0.759,0.569 -0.997,0.996 -0.237,0.426 -0.359,0.873 -0.359,1.343 0,0.472 0.123,0.924 0.366,1.355 0.244,0.433 0.577,0.765 1.002,0.995 0.424,0.232 0.868,0.347 1.332,0.347" /></g></g></g></g></svg>